# xmcd CD database file generated by OrangeCD 5.2
#
# Track frame offsets:
#	150
#	14442
#	26418
#	36361
#	49464
#	61003
#	72076
#	91664
#	124153
#	139123
#	164653
#	176711
#	196696
#	207597
#	222387
#	234236
#	245989
#	268886
#	281217
#	298822
#	314129
#
# Disc length: 4510 seconds
#
# Revision: 1
# Processed by: cddbd v1.5.2PL0 Copyright (c) Steve Scherf et al.
# Submitted via: OrangeCD 5.2
#
DISCID=53119c15
DTITLE=Various Artist - Dance Instrumental   Volume 1
DYEAR=2006
DGENRE=Dance Instrumental
TTITLE0=Bill Doggett - Honky Tonk   Part 1
TTITLE1=Bill Doggett - Honky Tonk   Part 2
TTITLE2=Bill Blacks Combo - Smokie   Part 2
TTITLE3=Booker T and The MG's - Green Onions
TTITLE4=Charlie Musselwhite - Sleepwalk
TTITLE5=Elmore James - Madison Blues
TTITLE6=Grover Washington Jr. - Soulful Srtut
TTITLE7=Herbie Mann - Memphis Underground
TTITLE8=Isaac Hayes - Theme From Shaft
TTITLE9=Ace Cannon - Honky Tonk
TTITLE10=Hugh Masekela - Grazing In The Grass
TTITLE11=MFSB - TSOP (The Sound Of Philadelphia)
TTITLE12=Santo and Johnny - Sleepwalk
TTITLE13=King Curtis - C C Rider
TTITLE14=Noble Watts - Jookin'
TTITLE15=The Mar-Keys - Last Night
TTITLE16=Paul Jackson Jr. - Soulful Strut
TTITLE17=Earl Hooker - Blue Guitar
TTITLE18=Jerry Boogie McCain - Honky Tonk
TTITLE19=Erskine Hawkins - After Hours
TTITLE20=George Benson - Breezin'
EXTD=
EXTT0=
EXTT1=
EXTT2=
EXTT3=
EXTT4=
EXTT5=
EXTT6=
EXTT7=
EXTT8=
EXTT9=
EXTT10=
EXTT11=
EXTT12=
EXTT13=
EXTT14=
EXTT15=
EXTT16=
EXTT17=
EXTT18=
EXTT19=
EXTT20=
PLAYORDER=
